<?xml version="1.0" ?><svg height="100%" id="svg2793" style="fill-rule:evenodd;clip-rule:evenodd;stroke-linejoin:round;stroke-miterlimit:2;" version="1.1" viewBox="0 0 512 512" width="100%" xml:space="preserve" xmlns="http://www.w3.org/2000/svg" xmlns:cc="http://creativecommons.org/ns#" xmlns:dc="http://purl.org/dc/elements/1.1/" xmlns:rdf="http://www.w3.org/1999/02/22-rdf-syntax-ns#" xmlns:serif="http://www.serif.com/" xmlns:svg="http://www.w3.org/2000/svg"><defs id="defs2797"/><g id="_35-Loading" style="display:inline" transform="translate(-4096,-6144)"><g id="g2024" transform="translate(4370.28,6192.29)"><path d="m 0,56.398 c 0,4.892 -1.899,9.482 -5.355,12.934 -3.457,3.455 -8.046,5.357 -12.925,5.357 -4.815,0 -9.53,-1.953 -12.934,-5.356 -3.404,-3.405 -5.356,-8.12 -5.356,-12.935 V -0.011 c 0,-4.809 1.952,-9.52 5.356,-12.924 3.404,-3.404 8.118,-5.356 12.934,-5.356 4.88,0 9.469,1.902 12.931,5.365 3.4,3.393 5.349,8.1 5.349,12.915 z M -18.28,-48.291 c -12.9,0 -25.027,5.022 -34.147,14.143 -8.988,8.988 -14.143,21.431 -14.143,34.137 v 56.409 c 0,12.9 5.022,25.027 14.144,34.148 9.121,9.121 21.248,14.143 34.146,14.143 12.891,0 25.014,-5.022 34.129,-14.135 C 24.975,81.442 30,69.312 30,56.398 V -0.011 C 30,-12.918 24.975,-25.044 15.856,-34.148 6.736,-43.269 -5.388,-48.291 -18.28,-48.291" id="path2022" style="fill-rule:nonzero"/></g><g id="g2028" transform="translate(4446.06,6266.04)"><path d="m 0,14.044 39.889,-39.891 c 3.404,-3.404 8.118,-5.356 12.933,-5.356 4.809,0 9.52,1.952 12.924,5.356 3.404,3.405 5.357,8.116 5.357,12.924 0,4.816 -1.953,9.53 -5.357,12.934 l -39.892,39.89 c -3.447,3.448 -8.036,5.346 -12.921,5.346 -4.886,0 -9.476,-1.898 -12.924,-5.347 -0.003,-0.003 -0.006,-0.006 -0.01,-0.009 -3.448,-3.449 -5.347,-8.038 -5.347,-12.924 0,-4.886 1.899,-9.475 5.348,-12.923 m -21.209,47.064 c 0.001,0.002 0.003,0.004 0.005,0.005 9.114,9.115 21.237,14.134 34.137,14.134 12.9,0 25.023,-5.019 34.135,-14.133 l 39.891,-39.89 c 9.121,-9.12 14.144,-21.247 14.144,-34.147 0,-12.706 -5.156,-25.148 -14.144,-34.137 -8.988,-8.988 -21.431,-14.143 -34.137,-14.143 -12.899,0 -25.026,5.022 -34.146,14.143 l -39.889,39.89 c -9.115,9.113 -14.135,21.236 -14.135,34.137 0,12.899 5.02,25.022 14.134,34.137 10e-4,0.002 0.003,0.003 0.005,0.004" id="path2026" style="fill-rule:nonzero"/></g><g id="g2032" transform="translate(4572.64,6387.08)"><path d="m 0,25.858 c -3.404,3.404 -8.115,5.356 -12.924,5.356 h -56.409 c -4.815,0 -9.53,-1.952 -12.934,-5.355 -3.404,-3.405 -5.357,-8.12 -5.357,-12.935 0,-4.878 1.902,-9.468 5.365,-12.931 3.444,-3.449 8.034,-5.349 12.926,-5.349 h 56.409 c 4.815,0 9.522,1.949 12.924,5.357 3.454,3.454 5.356,8.044 5.356,12.923 0,4.816 -1.952,9.53 -5.356,12.934 M 21.222,-21.205 C 12.109,-30.33 -0.017,-35.356 -12.924,-35.356 h -56.409 c -12.914,0 -25.044,5.026 -34.148,14.145 -9.121,9.121 -14.143,21.244 -14.143,34.135 0,12.898 5.022,25.025 14.144,34.147 9.12,9.121 21.247,14.143 34.147,14.143 h 56.409 c 12.706,0 25.149,-5.155 34.137,-14.143 9.121,-9.12 14.143,-21.247 14.143,-34.147 0,-12.892 -5.022,-25.016 -14.134,-34.129" id="path2030" style="fill-rule:nonzero"/></g><g id="g2036" transform="translate(4511.8,6494.07)"><path d="m 0,65.738 c -0.08,0.079 -0.158,0.16 -0.236,0.241 -3.378,3.255 -7.983,5.115 -12.688,5.115 -4.892,0 -9.485,-1.898 -12.933,-5.346 l -39.89,-39.89 c -3.448,-3.448 -5.347,-8.041 -5.347,-12.933 0,-4.706 1.861,-9.31 5.115,-12.688 0.082,-0.078 0.163,-0.156 0.242,-0.236 3.454,-3.454 8.044,-5.357 12.924,-5.357 4.879,0 9.468,1.903 12.922,5.358 L 0,39.89 c 3.454,3.454 5.356,8.044 5.356,12.924 0,4.88 -1.902,9.47 -5.356,12.924 m -18.677,-86.949 c -9.119,-9.121 -21.243,-14.145 -34.136,-14.145 -12.714,0 -24.681,4.886 -33.757,13.768 -0.132,0.122 -0.262,0.248 -0.39,0.376 -8.982,8.982 -14.134,21.425 -14.134,34.137 0,12.905 5.02,25.032 14.134,34.146 l 39.89,39.89 c 9.114,9.114 21.241,14.133 34.146,14.133 12.712,0 25.154,-5.151 34.137,-14.133 0.128,-0.128 0.253,-0.258 0.376,-0.39 8.882,-9.076 13.767,-21.042 13.767,-33.757 0,-12.892 -5.022,-25.016 -14.143,-34.137 z" id="path2034" style="fill-rule:nonzero"/></g><g id="g2040" transform="translate(4370.28,6551.31)"><path d="m 0,56.409 c 0,4.885 -1.899,9.472 -5.365,12.932 -3.444,3.449 -8.031,5.348 -12.915,5.348 -4.892,0 -9.482,-1.899 -12.934,-5.356 -3.454,-3.454 -5.356,-8.044 -5.356,-12.924 v -56.41 c 0,-4.88 1.902,-9.469 5.365,-12.931 3.443,-3.449 8.033,-5.348 12.925,-5.348 4.884,0 9.471,1.899 12.932,5.365 C -1.899,-9.472 0,-4.886 0,-0.001 Z M -18.28,-48.28 c -12.913,0 -25.043,5.025 -34.146,14.142 -9.121,9.119 -14.144,21.243 -14.144,34.137 v 56.41 c 0,12.893 5.022,25.017 14.134,34.129 9.113,9.126 21.243,14.151 34.156,14.151 12.907,0 25.033,-5.025 34.129,-14.134 C 24.975,81.442 30,69.316 30,56.409 V -0.001 C 30,-12.909 24.974,-25.035 15.865,-34.129 6.753,-43.255 -5.373,-48.28 -18.28,-48.28" id="path2038" style="fill-rule:nonzero"/></g><g id="g2044" transform="translate(4257.93,6533.95)"><path d="m 0,-14.022 -39.89,39.89 c -3.448,3.448 -8.038,5.346 -12.923,5.346 -4.886,0 -9.476,-1.898 -12.924,-5.346 -0.003,-0.004 -0.006,-0.007 -0.01,-0.01 -3.448,-3.448 -5.347,-8.038 -5.347,-12.924 0,-4.886 1.899,-9.476 5.347,-12.924 l 39.89,-39.889 c 3.404,-3.405 8.118,-5.357 12.933,-5.357 4.809,0 9.52,1.952 12.924,5.357 3.404,3.404 5.356,8.115 5.356,12.923 0,4.816 -1.952,9.53 -5.356,12.934 m -12.924,-61.214 c -12.899,0 -25.026,5.023 -34.146,14.144 l -39.89,39.889 c -9.114,9.115 -14.134,21.238 -14.134,34.137 0,12.899 5.02,25.023 14.134,34.137 l 0.01,0.01 c 9.114,9.114 21.237,14.133 34.137,14.133 12.899,0 25.022,-5.019 34.136,-14.133 l 39.89,-39.89 c 9.121,-9.12 14.143,-21.247 14.143,-34.147 0,-12.706 -5.155,-25.148 -14.143,-34.136 -8.988,-8.989 -21.431,-14.144 -34.137,-14.144" id="path2042" style="fill-rule:nonzero"/></g><g id="g2048" transform="translate(4131.35,6387.09)"><path d="m 0,25.84 c -3.449,-3.443 -5.349,-8.033 -5.349,-12.925 0,-4.885 1.9,-9.471 5.366,-12.931 3.443,-3.45 8.03,-5.349 12.915,-5.349 h 56.409 c 4.886,0 9.472,1.899 12.931,5.365 3.45,3.444 5.349,8.03 5.349,12.915 0,4.892 -1.899,9.482 -5.357,12.935 -3.453,3.453 -8.043,5.355 -12.923,5.355 H 12.932 C 8.052,31.205 3.462,29.303 0,25.84 m 103.47,21.23 c 9.126,-9.112 14.151,-21.242 14.151,-34.155 0,-12.907 -5.025,-25.033 -14.135,-34.128 -9.11,-9.126 -21.237,-14.152 -34.145,-14.152 H 12.932 c -12.908,0 -25.034,5.025 -34.129,14.135 -9.126,9.112 -14.152,21.238 -14.152,34.145 0,12.913 5.026,25.043 14.144,34.147 9.12,9.121 21.244,14.143 34.137,14.143 h 56.409 c 12.894,0 25.018,-5.023 34.129,-14.135" id="path2046" style="fill-rule:nonzero"/></g><g id="g2052" transform="translate(4257.93,6240.2)"><path d="m 0,65.738 c -0.08,0.079 -0.158,0.16 -0.236,0.241 -3.378,3.255 -7.983,5.115 -12.688,5.115 -4.892,0 -9.485,-1.898 -12.933,-5.346 l -39.89,-39.89 c -3.448,-3.448 -5.347,-8.041 -5.347,-12.933 0,-4.706 1.861,-9.31 5.115,-12.688 0.082,-0.077 0.163,-0.156 0.242,-0.236 3.454,-3.454 8.044,-5.357 12.924,-5.357 4.879,0 9.469,1.903 12.923,5.357 L 0.001,39.892 c 3.453,3.453 5.355,8.042 5.355,12.922 0,4.88 -1.902,9.47 -5.356,12.924 m -18.677,-86.95 c -9.12,-9.121 -21.244,-14.144 -34.136,-14.144 -12.715,0 -24.68,4.885 -33.756,13.767 -0.132,0.123 -0.263,0.249 -0.391,0.377 -8.982,8.982 -14.134,21.425 -14.134,34.137 0,12.905 5.02,25.032 14.134,34.146 l 39.89,39.89 c 9.114,9.114 21.241,14.133 34.146,14.133 12.712,0 25.154,-5.151 34.137,-14.133 0.128,-0.127 0.253,-0.257 0.375,-0.389 8.883,-9.076 13.768,-21.043 13.768,-33.758 0,-12.893 -5.023,-25.017 -14.142,-34.136 z" id="path2050" style="fill-rule:nonzero"/></g></g></svg>